<?xml version="1.0" encoding="UTF-8" standalone="no"?>
<svg
   xmlns:svg="http://www.w3.org/2000/svg"
   xmlns="http://www.w3.org/2000/svg"
   viewBox="380 37 553 456"
   version="0.0"
   width="100%"
   height="100%">
  <g>
    <path
       style="fill:#f1b42a"
       d="m 507.96404,490.85307 c -2.4043,-3.82765 -26.66729,-43.9729 -27.37069,-45.28721 -0.52855,-0.9876 2.69004,-6.68244 19.30464,-34.15678 10.96642,-18.13437 26.85036,-44.43132 35.29764,-58.43767 l 15.35869,-25.4661 -71.00776,-0.1589 -71.00775,-0.15891 -13.94477,-22.8125 c -7.66962,-12.54688 -13.95023,-23.02344 -13.9569,-23.28125 -0.007,-0.25781 57.95545,-0.46875 128.80473,-0.46875 102.79691,0 128.75625,0.15781 128.51669,0.78125 -0.16506,0.42969 -23.15142,38.46875 -51.08078,84.53125 -27.92937,46.0625 -56.55704,93.3125 -63.61703,105 -7.06,11.6875 -13.04854,21.49326 -13.30787,21.79057 -0.25934,0.29732 -1.15432,-0.54643 -1.98884,-1.875 z"
    />
    <path
       style="fill:#89bf44"
       d="M 742.4565,394.2333 C 709.33644,339.48311 680.34037,291.59375 678.02075,287.8125 l -4.21756,-6.875 128.82612,-0.15774 c 70.85432,-0.0868 128.9315,-0.0523 129.06044,0.0767 0.12894,0.12893 -6.31569,10.67461 -14.32144,23.43486 l -14.55581,23.20045 -70.42125,0.004 -70.42125,0.004 34.71875,58.90625 c 19.09531,32.39843 34.71844,59.1875 34.71806,59.53125 -3.7e-4,0.34375 -4.72037,8.35937 -10.48881,17.8125 -5.7685,9.45312 -12.23312,20.07685 -14.36575,23.6083 l -3.87756,6.42079 -60.21819,-99.54579 z"
    />
    <path
       style="fill:#e77d26"
       d="m 674.49894,259.84375 c 0.491,-0.77344 29.39137,-48.44531 64.22306,-105.9375 C 773.55369,96.414062 802.25319,49.375 802.49875,49.375 c 0.9215,0 29.45413,47.645494 29.09425,48.583325 -0.33606,0.875844 -17.68063,29.572085 -55.254,91.416675 l -14.99875,24.6875 71.01956,0.3125 71.01963,0.3125 9.91587,16.25 c 5.45375,8.9375 11.8575,19.41406 14.23069,23.28125 l 4.31475,7.03125 -129.11725,0 -129.11725,0 z"
    />
    <path
       style="fill:#e24a31"
       d="m 381.38629,259.76828 c 0.44067,-0.81494 6.98871,-11.35791 14.55121,-23.4288 l 13.75,-21.9471 70.51972,-0.009 70.51973,-0.009 -1.22401,-2.03125 C 533.42686,185.66554 481.25,97.398675 481.25,96.881219 c 0,-0.623894 28.30626,-47.57067 28.51813,-47.298183 0.34786,0.44737 127.09812,209.232824 127.66581,210.293574 l 0.73506,1.37339 -128.79197,0 -128.79195,0 0.80121,-1.48172 z"
    />
    <path
       style="fill:#ac39ac"
       d="M 653.68694,246.71875 C 587.91266,138.63719 526.875,38.099102 526.875,37.840723 526.875,37.653326 540.06973,37.5 556.19662,37.5 l 29.32162,0 34.85717,57.830138 c 27.66428,45.896722 35.01303,57.665282 35.61247,57.031252 0.41543,-0.43939 16.70131,-26.46295 36.19087,-57.83014 L 727.61437,37.5 l 28.72825,0 28.72826,0 -1.44169,2.397874 C 769.43125,63.512625 655.85931,249.375 655.62731,249.375 c -0.17812,0 -1.05131,-1.19531 -1.94037,-2.65625 z"
    />
  </g>
</svg>
